<?xml version="1.0" encoding="UTF-8"?>
<svg xmlns="http://www.w3.org/2000/svg" xmlns:xlink="http://www.w3.org/1999/xlink" width="32px" height="38px" viewBox="0 0 32 38" version="1.1">
<g id="surface1">
<path style=" stroke:none;fill-rule:evenodd;fill:rgb(80.784315%,0%,0%);fill-opacity:1;" d="M 8.074219 2.078125 C 13.066406 -0.738281 19.203125 -0.6875 24.152344 2.207031 C 29.050781 5.15625 32.027344 10.425781 32 16.097656 C 31.886719 21.726562 28.695312 27.019531 24.703125 31.113281 C 22.398438 33.484375 19.824219 35.582031 17.027344 37.363281 C 16.738281 37.527344 16.421875 37.632812 16.09375 37.683594 C 15.78125 37.671875 15.472656 37.582031 15.203125 37.421875 C 10.929688 34.746094 7.183594 31.332031 4.140625 27.339844 C 1.597656 24.007812 0.152344 19.984375 0 15.816406 C -0.00390625 10.136719 3.078125 4.890625 8.074219 2.078125 Z M 10.957031 18.164062 C 11.800781 20.175781 13.78125 21.484375 15.980469 21.484375 C 17.421875 21.492188 18.808594 20.933594 19.828125 19.929688 C 20.851562 18.925781 21.421875 17.558594 21.417969 16.132812 C 21.425781 13.960938 20.105469 11.996094 18.074219 11.160156 C 16.042969 10.324219 13.703125 10.777344 12.144531 12.3125 C 10.585938 13.847656 10.117188 16.15625 10.957031 18.164062 Z M 10.957031 18.164062 "/>
</g>
</svg>
