<?xml version="1.0" encoding="UTF-8"?>
<svg xmlns="http://www.w3.org/2000/svg" xmlns:xlink="http://www.w3.org/1999/xlink" width="32px" height="px" viewBox="0 0 32 44" version="1.1">
<defs>
<filter id="alpha" filterUnits="objectBoundingBox" x="0%" y="0%" width="100%" height="100%">
  <feColorMatrix type="matrix" in="SourceGraphic" values="0 0 0 0 1 0 0 0 0 1 0 0 0 0 1 0 0 0 1 0"/>
</filter>
<mask id="mask0">
  <g filter="url(#alpha)">
<rect x="0" y="0" width="32" height="44" style="fill:rgb(0%,0%,0%);fill-opacity:0.4;stroke:none;"/>
  </g>
</mask>
<clipPath id="clip1">
  <rect x="0" y="0" width="32" height="44"/>
</clipPath>
<g id="surface5" clip-path="url(#clip1)">
<path style=" stroke:none;fill-rule:nonzero;fill:rgb(64.313728%,2.745098%,100%);fill-opacity:1;" d="M 27.425781 41.800781 C 27.425781 40.585938 22.3125 39.601562 16 39.601562 C 9.6875 39.601562 4.570312 40.585938 4.570312 41.800781 C 4.570312 43.015625 9.6875 44 16 44 C 22.3125 44 27.425781 43.015625 27.425781 41.800781 Z M 27.425781 41.800781 "/>
</g>
</defs>
<g id="surface1">
<path style=" stroke:none;fill-rule:evenodd;fill:rgb(64.313728%,2.745098%,100%);fill-opacity:1;" d="M 8.074219 2.0625 C 13.066406 -0.730469 19.203125 -0.683594 24.152344 2.1875 C 29.050781 5.121094 32.027344 10.347656 32 15.976562 C 31.886719 21.5625 28.695312 26.816406 24.703125 30.878906 C 22.398438 33.234375 19.824219 35.316406 17.027344 37.082031 C 16.738281 37.242188 16.421875 37.351562 16.09375 37.398438 C 15.78125 37.386719 15.472656 37.296875 15.203125 37.140625 C 10.929688 34.484375 7.183594 31.09375 4.140625 27.136719 C 1.597656 23.828125 0.152344 19.835938 0 15.695312 C -0.00390625 10.058594 3.078125 4.855469 8.074219 2.0625 Z M 10.957031 18.027344 C 11.800781 20.023438 13.78125 21.324219 15.980469 21.324219 C 17.421875 21.332031 18.808594 20.777344 19.828125 19.78125 C 20.851562 18.78125 21.421875 17.425781 21.417969 16.011719 C 21.425781 13.855469 20.105469 11.90625 18.074219 11.078125 C 16.042969 10.246094 13.703125 10.699219 12.144531 12.21875 C 10.585938 13.742188 10.117188 16.035156 10.957031 18.027344 Z M 10.957031 18.027344 "/>
<use xlink:href="#surface5" mask="url(#mask0)"/>
</g>
</svg>
